<mxfile host="65bd71144e">
    <diagram id="VbwpczfGZ57j1nQdqN55" name="Page-1">
        <mxGraphModel dx="1530" dy="1833" grid="0" gridSize="10" guides="1" tooltips="1" connect="1" arrows="1" fold="1" page="1" pageScale="1" pageWidth="850" pageHeight="1100" background="#ffffff" math="0" shadow="0">
            <root>
                <mxCell id="0"/>
                <mxCell id="1" parent="0"/>
                <mxCell id="44" value="" style="group" parent="1" vertex="1" connectable="0">
                    <mxGeometry x="330" y="353" width="289" height="64" as="geometry"/>
                </mxCell>
                <mxCell id="18" value="" style="shape=table;html=1;whiteSpace=wrap;startSize=0;container=1;collapsible=0;childLayout=tableLayout;strokeColor=#000000;strokeWidth=2;fillColor=none;" parent="44" vertex="1">
                    <mxGeometry x="1" y="34" width="288" height="30" as="geometry"/>
                </mxCell>
                <mxCell id="19" value="" style="shape=tableRow;horizontal=0;startSize=0;swimlaneHead=0;swimlaneBody=0;top=0;left=0;bottom=0;right=0;collapsible=0;dropTarget=0;fillColor=none;points=[[0,0.5],[1,0.5]];portConstraint=eastwest;strokeColor=#000000;strokeWidth=2;" parent="18" vertex="1">
                    <mxGeometry width="288" height="30" as="geometry"/>
                </mxCell>
                <mxCell id="102" value="&lt;font color=&quot;#000000&quot;&gt;&lt;u&gt;showing_id&lt;/u&gt;&lt;/font&gt;" style="shape=partialRectangle;html=1;whiteSpace=wrap;connectable=0;fillColor=none;top=0;left=0;bottom=0;right=0;overflow=hidden;strokeColor=#000000;strokeWidth=2;" vertex="1" parent="19">
                    <mxGeometry width="74" height="30" as="geometry">
                        <mxRectangle width="74" height="30" as="alternateBounds"/>
                    </mxGeometry>
                </mxCell>
                <mxCell id="21" value="&lt;font color=&quot;#595959&quot;&gt;theatre_id&lt;/font&gt;" style="shape=partialRectangle;html=1;whiteSpace=wrap;connectable=0;fillColor=none;top=0;left=0;bottom=0;right=0;overflow=hidden;strokeColor=#000000;strokeWidth=2;" parent="19" vertex="1">
                    <mxGeometry x="74" width="74" height="30" as="geometry">
                        <mxRectangle width="74" height="30" as="alternateBounds"/>
                    </mxGeometry>
                </mxCell>
                <mxCell id="34" value="&lt;font color=&quot;#030303&quot;&gt;movie_id&lt;/font&gt;" style="shape=partialRectangle;html=1;whiteSpace=wrap;connectable=0;fillColor=none;top=0;left=0;bottom=0;right=0;overflow=hidden;strokeColor=#000000;strokeWidth=2;" parent="19" vertex="1">
                    <mxGeometry x="148" width="70" height="30" as="geometry">
                        <mxRectangle width="70" height="30" as="alternateBounds"/>
                    </mxGeometry>
                </mxCell>
                <mxCell id="57" value="&lt;font color=&quot;#000000&quot;&gt;show_time&lt;/font&gt;" style="shape=partialRectangle;html=1;whiteSpace=wrap;connectable=0;fillColor=none;top=0;left=0;bottom=0;right=0;overflow=hidden;strokeColor=#000000;strokeWidth=2;" parent="19" vertex="1">
                    <mxGeometry x="218" width="70" height="30" as="geometry">
                        <mxRectangle width="70" height="30" as="alternateBounds"/>
                    </mxGeometry>
                </mxCell>
                <mxCell id="22" value="&lt;b&gt;&lt;font color=&quot;#0d0d0d&quot;&gt;Showing&lt;/font&gt;&lt;/b&gt;" style="text;html=1;align=center;verticalAlign=middle;resizable=0;points=[];autosize=1;strokeColor=none;fillColor=none;" parent="44" vertex="1">
                    <mxGeometry x="1" y="10" width="60" height="18" as="geometry"/>
                </mxCell>
                <mxCell id="46" value="" style="group" parent="1" vertex="1" connectable="0">
                    <mxGeometry x="327" y="578" width="72" height="64" as="geometry"/>
                </mxCell>
                <mxCell id="23" value="" style="shape=table;html=1;whiteSpace=wrap;startSize=0;container=1;collapsible=0;childLayout=tableLayout;strokeColor=#000000;strokeWidth=2;fillColor=none;" parent="46" vertex="1">
                    <mxGeometry y="34" width="364.3788309300197" height="30" as="geometry"/>
                </mxCell>
                <mxCell id="24" value="" style="shape=tableRow;horizontal=0;startSize=0;swimlaneHead=0;swimlaneBody=0;top=0;left=0;bottom=0;right=0;collapsible=0;dropTarget=0;fillColor=none;points=[[0,0.5],[1,0.5]];portConstraint=eastwest;strokeColor=#000000;strokeWidth=2;" parent="23" vertex="1">
                    <mxGeometry width="364.3788309300197" height="30" as="geometry"/>
                </mxCell>
                <mxCell id="25" value="&lt;font color=&quot;#000000&quot;&gt;&lt;u&gt;ticket_id&lt;/u&gt;&lt;/font&gt;" style="shape=partialRectangle;html=1;whiteSpace=wrap;connectable=0;fillColor=none;top=0;left=0;bottom=0;right=0;overflow=hidden;strokeColor=#000000;strokeWidth=2;" parent="24" vertex="1">
                    <mxGeometry width="72" height="30" as="geometry">
                        <mxRectangle width="72" height="30" as="alternateBounds"/>
                    </mxGeometry>
                </mxCell>
                <mxCell id="62" value="&lt;font color=&quot;#000000&quot;&gt;user_id&lt;/font&gt;" style="shape=partialRectangle;html=1;whiteSpace=wrap;connectable=0;fillColor=none;top=0;left=0;bottom=0;right=0;overflow=hidden;strokeColor=#000000;strokeWidth=2;" parent="24" vertex="1">
                    <mxGeometry x="72" width="72" height="30" as="geometry">
                        <mxRectangle width="72" height="30" as="alternateBounds"/>
                    </mxGeometry>
                </mxCell>
                <mxCell id="63" value="&lt;font color=&quot;#000000&quot;&gt;seat_id&lt;/font&gt;" style="shape=partialRectangle;html=1;whiteSpace=wrap;connectable=0;fillColor=none;top=0;left=0;bottom=0;right=0;overflow=hidden;strokeColor=#000000;strokeWidth=2;" parent="24" vertex="1">
                    <mxGeometry x="144" width="72" height="30" as="geometry">
                        <mxRectangle width="72" height="30" as="alternateBounds"/>
                    </mxGeometry>
                </mxCell>
                <mxCell id="92" value="is_credited" style="shape=partialRectangle;html=1;whiteSpace=wrap;connectable=0;fillColor=none;top=0;left=0;bottom=0;right=0;overflow=hidden;strokeColor=#000000;strokeWidth=2;fontColor=#000000;" parent="24" vertex="1">
                    <mxGeometry x="216" width="81" height="30" as="geometry">
                        <mxRectangle width="81" height="30" as="alternateBounds"/>
                    </mxGeometry>
                </mxCell>
                <mxCell id="93" value="payment_id" style="shape=partialRectangle;html=1;whiteSpace=wrap;connectable=0;fillColor=none;top=0;left=0;bottom=0;right=0;overflow=hidden;strokeColor=#000000;strokeWidth=2;fontColor=#000000;" parent="24" vertex="1">
                    <mxGeometry x="297" width="67" height="30" as="geometry">
                        <mxRectangle width="67" height="30" as="alternateBounds"/>
                    </mxGeometry>
                </mxCell>
                <mxCell id="27" value="&lt;b&gt;&lt;font color=&quot;#0d0d0d&quot;&gt;Ticket&lt;/font&gt;&lt;/b&gt;" style="text;html=1;align=center;verticalAlign=middle;resizable=0;points=[];autosize=1;strokeColor=none;fillColor=none;" parent="46" vertex="1">
                    <mxGeometry x="7" y="11" width="44" height="18" as="geometry"/>
                </mxCell>
                <mxCell id="48" value="" style="group" parent="1" vertex="1" connectable="0">
                    <mxGeometry x="18" y="121" width="167" height="65" as="geometry"/>
                </mxCell>
                <mxCell id="8" value="" style="shape=table;html=1;whiteSpace=wrap;startSize=0;container=1;collapsible=0;childLayout=tableLayout;strokeColor=#000000;strokeWidth=2;fillColor=none;" parent="48" vertex="1">
                    <mxGeometry x="1" y="35" width="166" height="30" as="geometry"/>
                </mxCell>
                <mxCell id="9" value="" style="shape=tableRow;horizontal=0;startSize=0;swimlaneHead=0;swimlaneBody=0;top=0;left=0;bottom=0;right=0;collapsible=0;dropTarget=0;fillColor=none;points=[[0,0.5],[1,0.5]];portConstraint=eastwest;strokeColor=#000000;strokeWidth=2;" parent="8" vertex="1">
                    <mxGeometry width="166" height="30" as="geometry"/>
                </mxCell>
                <mxCell id="10" value="&lt;font color=&quot;#000000&quot;&gt;&lt;u&gt;theatre_id&lt;/u&gt;&lt;/font&gt;" style="shape=partialRectangle;html=1;whiteSpace=wrap;connectable=0;fillColor=none;top=0;left=0;bottom=0;right=0;overflow=hidden;strokeColor=#000000;strokeWidth=2;" parent="9" vertex="1">
                    <mxGeometry width="83" height="30" as="geometry">
                        <mxRectangle width="83" height="30" as="alternateBounds"/>
                    </mxGeometry>
                </mxCell>
                <mxCell id="11" value="&lt;font color=&quot;#595959&quot;&gt;theatre_name&lt;/font&gt;" style="shape=partialRectangle;html=1;whiteSpace=wrap;connectable=0;fillColor=none;top=0;left=0;bottom=0;right=0;overflow=hidden;strokeColor=#000000;strokeWidth=2;" parent="9" vertex="1">
                    <mxGeometry x="83" width="83" height="30" as="geometry">
                        <mxRectangle width="83" height="30" as="alternateBounds"/>
                    </mxGeometry>
                </mxCell>
                <mxCell id="12" value="&lt;b&gt;&lt;font color=&quot;#0d0d0d&quot;&gt;Theatre&lt;/font&gt;&lt;/b&gt;" style="text;html=1;align=center;verticalAlign=middle;resizable=0;points=[];autosize=1;strokeColor=none;fillColor=none;" parent="48" vertex="1">
                    <mxGeometry width="60" height="20" as="geometry"/>
                </mxCell>
                <mxCell id="49" value="" style="group" parent="1" vertex="1" connectable="0">
                    <mxGeometry x="207" y="121" width="166" height="63" as="geometry"/>
                </mxCell>
                <mxCell id="13" value="" style="shape=table;html=1;whiteSpace=wrap;startSize=0;container=1;collapsible=0;childLayout=tableLayout;strokeColor=#000000;strokeWidth=2;fillColor=none;" parent="49" vertex="1">
                    <mxGeometry y="33" width="249" height="30" as="geometry"/>
                </mxCell>
                <mxCell id="14" value="" style="shape=tableRow;horizontal=0;startSize=0;swimlaneHead=0;swimlaneBody=0;top=0;left=0;bottom=0;right=0;collapsible=0;dropTarget=0;fillColor=none;points=[[0,0.5],[1,0.5]];portConstraint=eastwest;strokeColor=#000000;strokeWidth=2;" parent="13" vertex="1">
                    <mxGeometry width="249" height="30" as="geometry"/>
                </mxCell>
                <mxCell id="15" value="&lt;font color=&quot;#000000&quot;&gt;&lt;u&gt;movie_id&lt;/u&gt;&lt;/font&gt;" style="shape=partialRectangle;html=1;whiteSpace=wrap;connectable=0;fillColor=none;top=0;left=0;bottom=0;right=0;overflow=hidden;strokeColor=#000000;strokeWidth=2;" parent="14" vertex="1">
                    <mxGeometry width="83" height="30" as="geometry">
                        <mxRectangle width="83" height="30" as="alternateBounds"/>
                    </mxGeometry>
                </mxCell>
                <mxCell id="16" value="&lt;font color=&quot;#595959&quot;&gt;movie_name&lt;/font&gt;" style="shape=partialRectangle;html=1;whiteSpace=wrap;connectable=0;fillColor=none;top=0;left=0;bottom=0;right=0;overflow=hidden;strokeColor=#000000;strokeWidth=2;" parent="14" vertex="1">
                    <mxGeometry x="83" width="83" height="30" as="geometry">
                        <mxRectangle width="83" height="30" as="alternateBounds"/>
                    </mxGeometry>
                </mxCell>
                <mxCell id="94" value="isPresale" style="shape=partialRectangle;html=1;whiteSpace=wrap;connectable=0;fillColor=none;top=0;left=0;bottom=0;right=0;overflow=hidden;strokeColor=#000000;strokeWidth=2;fontColor=#000000;" parent="14" vertex="1">
                    <mxGeometry x="166" width="83" height="30" as="geometry">
                        <mxRectangle width="83" height="30" as="alternateBounds"/>
                    </mxGeometry>
                </mxCell>
                <mxCell id="17" value="&lt;b&gt;&lt;font color=&quot;#0d0d0d&quot;&gt;Movie&lt;/font&gt;&lt;/b&gt;" style="text;html=1;align=center;verticalAlign=middle;resizable=0;points=[];autosize=1;strokeColor=none;fillColor=none;" parent="49" vertex="1">
                    <mxGeometry x="3" width="44" height="18" as="geometry"/>
                </mxCell>
                <mxCell id="50" style="edgeStyle=orthogonalEdgeStyle;html=1;entryX=0.275;entryY=1.015;entryDx=0;entryDy=0;entryPerimeter=0;fontColor=#000000;strokeColor=#000000;" parent="1" source="19" target="9" edge="1">
                    <mxGeometry relative="1" as="geometry">
                        <mxPoint x="224" y="381" as="sourcePoint"/>
                        <Array as="points">
                            <mxPoint x="423" y="312"/>
                            <mxPoint x="65" y="312"/>
                        </Array>
                    </mxGeometry>
                </mxCell>
                <mxCell id="51" style="edgeStyle=orthogonalEdgeStyle;html=1;fontColor=#000000;strokeColor=#000000;" parent="1" source="19" edge="1">
                    <mxGeometry relative="1" as="geometry">
                        <mxPoint x="105" y="370" as="sourcePoint"/>
                        <Array as="points">
                            <mxPoint x="507" y="302"/>
                            <mxPoint x="250" y="302"/>
                        </Array>
                        <mxPoint x="250" y="187" as="targetPoint"/>
                    </mxGeometry>
                </mxCell>
                <mxCell id="61" style="edgeStyle=orthogonalEdgeStyle;html=1;fontColor=#030000;strokeColor=#000000;entryX=0.045;entryY=1.031;entryDx=0;entryDy=0;entryPerimeter=0;exitX=0.319;exitY=1.079;exitDx=0;exitDy=0;exitPerimeter=0;" parent="1" target="29" edge="1" source="24">
                    <mxGeometry relative="1" as="geometry">
                        <mxPoint x="441" y="655" as="sourcePoint"/>
                        <Array as="points">
                            <mxPoint x="442" y="691"/>
                            <mxPoint x="795" y="691"/>
                            <mxPoint x="795" y="285"/>
                            <mxPoint x="513" y="285"/>
                        </Array>
                        <mxPoint x="506" y="198" as="targetPoint"/>
                    </mxGeometry>
                </mxCell>
                <mxCell id="28" value="" style="shape=table;html=1;whiteSpace=wrap;startSize=0;container=1;collapsible=0;childLayout=tableLayout;strokeColor=#000000;strokeWidth=2;fillColor=none;" parent="1" vertex="1">
                    <mxGeometry x="482" y="156" width="688.0341357029799" height="30" as="geometry"/>
                </mxCell>
                <mxCell id="29" value="" style="shape=tableRow;horizontal=0;startSize=0;swimlaneHead=0;swimlaneBody=0;top=0;left=0;bottom=0;right=0;collapsible=0;dropTarget=0;fillColor=none;points=[[0,0.5],[1,0.5]];portConstraint=eastwest;strokeColor=#000000;strokeWidth=2;" parent="28" vertex="1">
                    <mxGeometry width="688.0341357029799" height="30" as="geometry"/>
                </mxCell>
                <mxCell id="30" value="&lt;font color=&quot;#000000&quot;&gt;&lt;u&gt;id&lt;/u&gt;&lt;/font&gt;" style="shape=partialRectangle;html=1;whiteSpace=wrap;connectable=0;fillColor=none;top=0;left=0;bottom=0;right=0;overflow=hidden;strokeColor=#000000;strokeWidth=2;" parent="29" vertex="1">
                    <mxGeometry width="50" height="30" as="geometry">
                        <mxRectangle width="50" height="30" as="alternateBounds"/>
                    </mxGeometry>
                </mxCell>
                <mxCell id="31" value="&lt;font color=&quot;#000000&quot;&gt;first_name&lt;/font&gt;" style="shape=partialRectangle;html=1;whiteSpace=wrap;connectable=0;fillColor=none;top=0;left=0;bottom=0;right=0;overflow=hidden;strokeColor=#000000;strokeWidth=2;" parent="29" vertex="1">
                    <mxGeometry x="50" width="64" height="30" as="geometry">
                        <mxRectangle width="64" height="30" as="alternateBounds"/>
                    </mxGeometry>
                </mxCell>
                <mxCell id="97" value="&lt;font color=&quot;#000000&quot;&gt;last_name&lt;/font&gt;" style="shape=partialRectangle;html=1;whiteSpace=wrap;connectable=0;fillColor=none;top=0;left=0;bottom=0;right=0;overflow=hidden;strokeColor=#000000;strokeWidth=2;" vertex="1" parent="29">
                    <mxGeometry x="114" width="65" height="30" as="geometry">
                        <mxRectangle width="65" height="30" as="alternateBounds"/>
                    </mxGeometry>
                </mxCell>
                <mxCell id="37" value="&lt;font color=&quot;#0d0d0d&quot;&gt;email_address&lt;/font&gt;" style="shape=partialRectangle;html=1;whiteSpace=wrap;connectable=0;fillColor=none;top=0;left=0;bottom=0;right=0;overflow=hidden;strokeColor=#000000;strokeWidth=2;" parent="29" vertex="1">
                    <mxGeometry x="179" width="89" height="30" as="geometry">
                        <mxRectangle width="89" height="30" as="alternateBounds"/>
                    </mxGeometry>
                </mxCell>
                <mxCell id="99" value="&lt;font color=&quot;#000000&quot;&gt;password&lt;/font&gt;" style="shape=partialRectangle;html=1;whiteSpace=wrap;connectable=0;fillColor=none;top=0;left=0;bottom=0;right=0;overflow=hidden;strokeColor=#000000;strokeWidth=2;" vertex="1" parent="29">
                    <mxGeometry x="268" width="98" height="30" as="geometry">
                        <mxRectangle width="98" height="30" as="alternateBounds"/>
                    </mxGeometry>
                </mxCell>
                <mxCell id="100" value="&lt;font color=&quot;#000000&quot;&gt;address&lt;/font&gt;" style="shape=partialRectangle;html=1;whiteSpace=wrap;connectable=0;fillColor=none;top=0;left=0;bottom=0;right=0;overflow=hidden;strokeColor=#000000;strokeWidth=2;" vertex="1" parent="29">
                    <mxGeometry x="366" width="67" height="30" as="geometry">
                        <mxRectangle width="67" height="30" as="alternateBounds"/>
                    </mxGeometry>
                </mxCell>
                <mxCell id="36" value="&lt;font color=&quot;#0a0a0a&quot;&gt;credit_credentials&lt;/font&gt;" style="shape=partialRectangle;html=1;whiteSpace=wrap;connectable=0;fillColor=none;top=0;left=0;bottom=0;right=0;overflow=hidden;strokeColor=#000000;strokeWidth=2;" parent="29" vertex="1">
                    <mxGeometry x="433" width="113" height="30" as="geometry">
                        <mxRectangle width="113" height="30" as="alternateBounds"/>
                    </mxGeometry>
                </mxCell>
                <mxCell id="101" value="&lt;font color=&quot;#030303&quot;&gt;annual_fee_expiry_date&lt;/font&gt;" style="shape=partialRectangle;html=1;whiteSpace=wrap;connectable=0;fillColor=none;top=0;left=0;bottom=0;right=0;overflow=hidden;strokeColor=#000000;strokeWidth=2;" vertex="1" parent="29">
                    <mxGeometry x="546" width="142" height="30" as="geometry">
                        <mxRectangle width="142" height="30" as="alternateBounds"/>
                    </mxGeometry>
                </mxCell>
                <mxCell id="32" value="&lt;b&gt;&lt;font color=&quot;#0d0d0d&quot;&gt;Registered_User&lt;/font&gt;&lt;/b&gt;" style="text;html=1;align=center;verticalAlign=middle;resizable=0;points=[];autosize=1;strokeColor=none;fillColor=none;" parent="1" vertex="1">
                    <mxGeometry x="482" y="118" width="105" height="18" as="geometry"/>
                </mxCell>
                <mxCell id="77" value="" style="group" parent="1" vertex="1" connectable="0">
                    <mxGeometry x="327" y="478" width="286" height="63" as="geometry"/>
                </mxCell>
                <mxCell id="70" value="" style="group;fontStyle=0" parent="77" vertex="1" connectable="0">
                    <mxGeometry width="166" height="63" as="geometry"/>
                </mxCell>
                <mxCell id="69" value="&lt;span&gt;&lt;font color=&quot;#0d0d0d&quot;&gt;&lt;b&gt;Seats&lt;/b&gt;&lt;/font&gt;&lt;/span&gt;" style="text;html=1;align=center;verticalAlign=middle;resizable=0;points=[];autosize=1;strokeColor=none;fillColor=none;fontStyle=0" parent="70" vertex="1">
                    <mxGeometry x="2" width="42" height="18" as="geometry"/>
                </mxCell>
                <mxCell id="71" value="" style="shape=table;html=1;whiteSpace=wrap;startSize=0;container=1;collapsible=0;childLayout=tableLayout;strokeColor=#000000;strokeWidth=2;fillColor=none;fontStyle=0" parent="77" vertex="1">
                    <mxGeometry y="33" width="352.6684698807567" height="30" as="geometry"/>
                </mxCell>
                <mxCell id="72" value="" style="shape=tableRow;horizontal=0;startSize=0;swimlaneHead=0;swimlaneBody=0;top=0;left=0;bottom=0;right=0;collapsible=0;dropTarget=0;fillColor=none;points=[[0,0.5],[1,0.5]];portConstraint=eastwest;strokeColor=#000000;strokeWidth=2;fontStyle=0" parent="71" vertex="1">
                    <mxGeometry width="352.6684698807567" height="30" as="geometry"/>
                </mxCell>
                <mxCell id="73" value="&lt;font color=&quot;#000000&quot;&gt;&lt;u&gt;seat_id&lt;/u&gt;&lt;/font&gt;" style="shape=partialRectangle;html=1;whiteSpace=wrap;connectable=0;fillColor=none;top=0;left=0;bottom=0;right=0;overflow=hidden;strokeColor=#000000;strokeWidth=2;fontStyle=0" parent="72" vertex="1">
                    <mxGeometry width="72" height="30" as="geometry">
                        <mxRectangle width="72" height="30" as="alternateBounds"/>
                    </mxGeometry>
                </mxCell>
                <mxCell id="91" value="&lt;font color=&quot;#030303&quot;&gt;seat_label&lt;/font&gt;" style="shape=partialRectangle;html=1;whiteSpace=wrap;connectable=0;fillColor=none;top=0;left=0;bottom=0;right=0;overflow=hidden;strokeColor=#000000;strokeWidth=2;fontStyle=0" parent="72" vertex="1">
                    <mxGeometry x="72" width="72" height="30" as="geometry">
                        <mxRectangle width="72" height="30" as="alternateBounds"/>
                    </mxGeometry>
                </mxCell>
                <mxCell id="108" value="&lt;font color=&quot;#000000&quot;&gt;showing_id&lt;/font&gt;" style="shape=partialRectangle;html=1;whiteSpace=wrap;connectable=0;fillColor=none;top=0;left=0;bottom=0;right=0;overflow=hidden;strokeColor=#000000;strokeWidth=2;fontStyle=0" vertex="1" parent="72">
                    <mxGeometry x="144" width="74" height="30" as="geometry">
                        <mxRectangle width="74" height="30" as="alternateBounds"/>
                    </mxGeometry>
                </mxCell>
                <mxCell id="76" value="&lt;font color=&quot;#000000&quot;&gt;booked&lt;/font&gt;" style="shape=partialRectangle;html=1;whiteSpace=wrap;connectable=0;fillColor=none;top=0;left=0;bottom=0;right=0;overflow=hidden;strokeColor=#000000;strokeWidth=2;fontStyle=0" parent="72" vertex="1">
                    <mxGeometry x="218" width="70" height="30" as="geometry">
                        <mxRectangle width="70" height="30" as="alternateBounds"/>
                    </mxGeometry>
                </mxCell>
                <mxCell id="81" value="&lt;font color=&quot;#030303&quot;&gt;cost&lt;/font&gt;" style="shape=partialRectangle;html=1;whiteSpace=wrap;connectable=0;fillColor=none;top=0;left=0;bottom=0;right=0;overflow=hidden;strokeColor=#000000;strokeWidth=2;fontStyle=0" parent="72" vertex="1">
                    <mxGeometry x="288" width="65" height="30" as="geometry">
                        <mxRectangle width="65" height="30" as="alternateBounds"/>
                    </mxGeometry>
                </mxCell>
                <mxCell id="82" style="edgeStyle=orthogonalEdgeStyle;html=1;fontColor=#030303;strokeColor=#000000;exitX=0.504;exitY=0.001;exitDx=0;exitDy=0;exitPerimeter=0;" parent="1" source="24" edge="1">
                    <mxGeometry relative="1" as="geometry">
                        <Array as="points">
                            <mxPoint x="508" y="576"/>
                            <mxPoint x="373" y="576"/>
                        </Array>
                        <mxPoint x="373" y="540" as="targetPoint"/>
                    </mxGeometry>
                </mxCell>
                <mxCell id="115" style="edgeStyle=orthogonalEdgeStyle;html=1;entryX=0.089;entryY=1.007;entryDx=0;entryDy=0;entryPerimeter=0;fontColor=#000000;strokeColor=#050505;" edge="1" parent="1" source="71" target="19">
                    <mxGeometry relative="1" as="geometry"/>
                </mxCell>
                <mxCell id="117" value="" style="group" vertex="1" connectable="0" parent="1">
                    <mxGeometry x="326" y="718" width="286" height="63" as="geometry"/>
                </mxCell>
                <mxCell id="118" value="" style="group;fontStyle=0" vertex="1" connectable="0" parent="117">
                    <mxGeometry width="166" height="63" as="geometry"/>
                </mxCell>
                <mxCell id="119" value="&lt;span&gt;&lt;font color=&quot;#0d0d0d&quot;&gt;&lt;b&gt;Payment&lt;/b&gt;&lt;/font&gt;&lt;/span&gt;" style="text;html=1;align=center;verticalAlign=middle;resizable=0;points=[];autosize=1;strokeColor=none;fillColor=none;fontStyle=0" vertex="1" parent="118">
                    <mxGeometry x="-7" width="60" height="18" as="geometry"/>
                </mxCell>
                <mxCell id="120" value="" style="shape=table;html=1;whiteSpace=wrap;startSize=0;container=1;collapsible=0;childLayout=tableLayout;strokeColor=#000000;strokeWidth=2;fillColor=none;fontStyle=0" vertex="1" parent="117">
                    <mxGeometry y="33" width="165.3336947024281" height="30" as="geometry"/>
                </mxCell>
                <mxCell id="121" value="" style="shape=tableRow;horizontal=0;startSize=0;swimlaneHead=0;swimlaneBody=0;top=0;left=0;bottom=0;right=0;collapsible=0;dropTarget=0;fillColor=none;points=[[0,0.5],[1,0.5]];portConstraint=eastwest;strokeColor=#000000;strokeWidth=2;fontStyle=0" vertex="1" parent="120">
                    <mxGeometry width="165.3336947024281" height="30" as="geometry"/>
                </mxCell>
                <mxCell id="122" value="&lt;font color=&quot;#000000&quot;&gt;&lt;u&gt;payment_id&lt;/u&gt;&lt;/font&gt;" style="shape=partialRectangle;html=1;whiteSpace=wrap;connectable=0;fillColor=none;top=0;left=0;bottom=0;right=0;overflow=hidden;strokeColor=#000000;strokeWidth=2;fontStyle=0" vertex="1" parent="121">
                    <mxGeometry width="72" height="30" as="geometry">
                        <mxRectangle width="72" height="30" as="alternateBounds"/>
                    </mxGeometry>
                </mxCell>
                <mxCell id="123" value="&lt;font color=&quot;#030303&quot;&gt;completion_date&lt;/font&gt;" style="shape=partialRectangle;html=1;whiteSpace=wrap;connectable=0;fillColor=none;top=0;left=0;bottom=0;right=0;overflow=hidden;strokeColor=#000000;strokeWidth=2;fontStyle=0" vertex="1" parent="121">
                    <mxGeometry x="72" width="93" height="30" as="geometry">
                        <mxRectangle width="93" height="30" as="alternateBounds"/>
                    </mxGeometry>
                </mxCell>
                <mxCell id="128" value="" style="group" vertex="1" connectable="0" parent="1">
                    <mxGeometry x="327" y="805" width="286" height="63" as="geometry"/>
                </mxCell>
                <mxCell id="129" value="" style="group;fontStyle=0" vertex="1" connectable="0" parent="128">
                    <mxGeometry width="166" height="63" as="geometry"/>
                </mxCell>
                <mxCell id="130" value="&lt;span&gt;&lt;font color=&quot;#0d0d0d&quot;&gt;&lt;b&gt;Refund&lt;/b&gt;&lt;/font&gt;&lt;/span&gt;" style="text;html=1;align=center;verticalAlign=middle;resizable=0;points=[];autosize=1;strokeColor=none;fillColor=none;fontStyle=0" vertex="1" parent="129">
                    <mxGeometry x="-2" width="51" height="18" as="geometry"/>
                </mxCell>
                <mxCell id="131" value="" style="shape=table;html=1;whiteSpace=wrap;startSize=0;container=1;collapsible=0;childLayout=tableLayout;strokeColor=#000000;strokeWidth=2;fillColor=none;fontStyle=0" vertex="1" parent="128">
                    <mxGeometry y="33" width="258.3336947024281" height="30" as="geometry"/>
                </mxCell>
                <mxCell id="132" value="" style="shape=tableRow;horizontal=0;startSize=0;swimlaneHead=0;swimlaneBody=0;top=0;left=0;bottom=0;right=0;collapsible=0;dropTarget=0;fillColor=none;points=[[0,0.5],[1,0.5]];portConstraint=eastwest;strokeColor=#000000;strokeWidth=2;fontStyle=0" vertex="1" parent="131">
                    <mxGeometry width="258.3336947024281" height="30" as="geometry"/>
                </mxCell>
                <mxCell id="133" value="&lt;font color=&quot;#000000&quot;&gt;&lt;u&gt;ticket_id&lt;/u&gt;&lt;/font&gt;" style="shape=partialRectangle;html=1;whiteSpace=wrap;connectable=0;fillColor=none;top=0;left=0;bottom=0;right=0;overflow=hidden;strokeColor=#000000;strokeWidth=2;fontStyle=0" vertex="1" parent="132">
                    <mxGeometry width="72" height="30" as="geometry">
                        <mxRectangle width="72" height="30" as="alternateBounds"/>
                    </mxGeometry>
                </mxCell>
                <mxCell id="134" value="&lt;font color=&quot;#030303&quot;&gt;credit_available&lt;/font&gt;" style="shape=partialRectangle;html=1;whiteSpace=wrap;connectable=0;fillColor=none;top=0;left=0;bottom=0;right=0;overflow=hidden;strokeColor=#000000;strokeWidth=2;fontStyle=0" vertex="1" parent="132">
                    <mxGeometry x="72" width="93" height="30" as="geometry">
                        <mxRectangle width="93" height="30" as="alternateBounds"/>
                    </mxGeometry>
                </mxCell>
                <mxCell id="135" value="&lt;font color=&quot;#000000&quot;&gt;expiration_date&lt;/font&gt;" style="shape=partialRectangle;html=1;whiteSpace=wrap;connectable=0;fillColor=none;top=0;left=0;bottom=0;right=0;overflow=hidden;strokeColor=#000000;strokeWidth=2;fontStyle=0" vertex="1" parent="132">
                    <mxGeometry x="165" width="93" height="30" as="geometry">
                        <mxRectangle width="93" height="30" as="alternateBounds"/>
                    </mxGeometry>
                </mxCell>
                <mxCell id="136" style="edgeStyle=orthogonalEdgeStyle;html=1;entryX=0.083;entryY=0.99;entryDx=0;entryDy=0;entryPerimeter=0;fontColor=#000000;strokeColor=#050505;exitX=0.137;exitY=-0.032;exitDx=0;exitDy=0;exitPerimeter=0;" edge="1" parent="1" source="132" target="24">
                    <mxGeometry relative="1" as="geometry">
                        <Array as="points">
                            <mxPoint x="362" y="829"/>
                            <mxPoint x="595" y="829"/>
                            <mxPoint x="595" y="711"/>
                            <mxPoint x="357" y="711"/>
                        </Array>
                    </mxGeometry>
                </mxCell>
                <mxCell id="137" value="" style="group" vertex="1" connectable="0" parent="1">
                    <mxGeometry x="327" y="901" width="286" height="63" as="geometry"/>
                </mxCell>
                <mxCell id="138" value="" style="group;fontStyle=0" vertex="1" connectable="0" parent="137">
                    <mxGeometry width="166" height="63" as="geometry"/>
                </mxCell>
                <mxCell id="139" value="&lt;span&gt;&lt;font color=&quot;#0d0d0d&quot;&gt;&lt;b&gt;Refund Payment&lt;/b&gt;&lt;/font&gt;&lt;/span&gt;" style="text;html=1;align=center;verticalAlign=middle;resizable=0;points=[];autosize=1;strokeColor=none;fillColor=none;fontStyle=0" vertex="1" parent="138">
                    <mxGeometry x="-29" width="105" height="18" as="geometry"/>
                </mxCell>
                <mxCell id="140" value="" style="shape=table;html=1;whiteSpace=wrap;startSize=0;container=1;collapsible=0;childLayout=tableLayout;strokeColor=#000000;strokeWidth=2;fillColor=none;fontStyle=0" vertex="1" parent="137">
                    <mxGeometry y="33" width="258.3336947024281" height="30" as="geometry"/>
                </mxCell>
                <mxCell id="141" value="" style="shape=tableRow;horizontal=0;startSize=0;swimlaneHead=0;swimlaneBody=0;top=0;left=0;bottom=0;right=0;collapsible=0;dropTarget=0;fillColor=none;points=[[0,0.5],[1,0.5]];portConstraint=eastwest;strokeColor=#000000;strokeWidth=2;fontStyle=0" vertex="1" parent="140">
                    <mxGeometry width="258.3336947024281" height="30" as="geometry"/>
                </mxCell>
                <mxCell id="142" value="&lt;font color=&quot;#000000&quot;&gt;&lt;u&gt;payment_id&lt;/u&gt;&lt;/font&gt;" style="shape=partialRectangle;html=1;whiteSpace=wrap;connectable=0;fillColor=none;top=0;left=0;bottom=0;right=0;overflow=hidden;strokeColor=#000000;strokeWidth=2;fontStyle=0" vertex="1" parent="141">
                    <mxGeometry width="72" height="30" as="geometry">
                        <mxRectangle width="72" height="30" as="alternateBounds"/>
                    </mxGeometry>
                </mxCell>
                <mxCell id="143" value="&lt;font color=&quot;#030303&quot;&gt;refund_amount&lt;/font&gt;" style="shape=partialRectangle;html=1;whiteSpace=wrap;connectable=0;fillColor=none;top=0;left=0;bottom=0;right=0;overflow=hidden;strokeColor=#000000;strokeWidth=2;fontStyle=0" vertex="1" parent="141">
                    <mxGeometry x="72" width="93" height="30" as="geometry">
                        <mxRectangle width="93" height="30" as="alternateBounds"/>
                    </mxGeometry>
                </mxCell>
                <mxCell id="144" value="&lt;font color=&quot;#000000&quot;&gt;&lt;u&gt;refund_ticket_id&lt;/u&gt;&lt;/font&gt;" style="shape=partialRectangle;html=1;whiteSpace=wrap;connectable=0;fillColor=none;top=0;left=0;bottom=0;right=0;overflow=hidden;strokeColor=#000000;strokeWidth=2;fontStyle=0" vertex="1" parent="141">
                    <mxGeometry x="165" width="93" height="30" as="geometry">
                        <mxRectangle width="93" height="30" as="alternateBounds"/>
                    </mxGeometry>
                </mxCell>
                <mxCell id="145" style="edgeStyle=orthogonalEdgeStyle;html=1;entryX=0.146;entryY=1.081;entryDx=0;entryDy=0;entryPerimeter=0;fontColor=#000000;strokeColor=#050505;exitX=0.805;exitY=-0.032;exitDx=0;exitDy=0;exitPerimeter=0;" edge="1" parent="1" source="141" target="132">
                    <mxGeometry relative="1" as="geometry">
                        <Array as="points">
                            <mxPoint x="535" y="889"/>
                            <mxPoint x="365" y="889"/>
                        </Array>
                    </mxGeometry>
                </mxCell>
                <mxCell id="146" style="edgeStyle=orthogonalEdgeStyle;html=1;entryX=0.234;entryY=1.004;entryDx=0;entryDy=0;entryPerimeter=0;fontColor=#000000;strokeColor=#050505;" edge="1" parent="1" source="140" target="121">
                    <mxGeometry relative="1" as="geometry">
                        <Array as="points">
                            <mxPoint x="355" y="922"/>
                            <mxPoint x="294" y="922"/>
                            <mxPoint x="294" y="803"/>
                            <mxPoint x="365" y="803"/>
                        </Array>
                    </mxGeometry>
                </mxCell>
                <mxCell id="147" value="" style="group" vertex="1" connectable="0" parent="1">
                    <mxGeometry x="328" y="980" width="286" height="63" as="geometry"/>
                </mxCell>
                <mxCell id="148" value="" style="group;fontStyle=0" vertex="1" connectable="0" parent="147">
                    <mxGeometry width="166" height="63" as="geometry"/>
                </mxCell>
                <mxCell id="149" value="&lt;span&gt;&lt;font color=&quot;#0d0d0d&quot;&gt;&lt;b&gt;Credit Payment&lt;/b&gt;&lt;/font&gt;&lt;/span&gt;" style="text;html=1;align=center;verticalAlign=middle;resizable=0;points=[];autosize=1;strokeColor=none;fillColor=none;fontStyle=0" vertex="1" parent="148">
                    <mxGeometry x="-25" width="98" height="18" as="geometry"/>
                </mxCell>
                <mxCell id="150" value="" style="shape=table;html=1;whiteSpace=wrap;startSize=0;container=1;collapsible=0;childLayout=tableLayout;strokeColor=#000000;strokeWidth=2;fillColor=none;fontStyle=0" vertex="1" parent="147">
                    <mxGeometry y="33" width="258.3336947024281" height="30" as="geometry"/>
                </mxCell>
                <mxCell id="151" value="" style="shape=tableRow;horizontal=0;startSize=0;swimlaneHead=0;swimlaneBody=0;top=0;left=0;bottom=0;right=0;collapsible=0;dropTarget=0;fillColor=none;points=[[0,0.5],[1,0.5]];portConstraint=eastwest;strokeColor=#000000;strokeWidth=2;fontStyle=0" vertex="1" parent="150">
                    <mxGeometry width="258.3336947024281" height="30" as="geometry"/>
                </mxCell>
                <mxCell id="152" value="&lt;font color=&quot;#000000&quot;&gt;&lt;u&gt;payment_id&lt;/u&gt;&lt;/font&gt;" style="shape=partialRectangle;html=1;whiteSpace=wrap;connectable=0;fillColor=none;top=0;left=0;bottom=0;right=0;overflow=hidden;strokeColor=#000000;strokeWidth=2;fontStyle=0" vertex="1" parent="151">
                    <mxGeometry width="72" height="30" as="geometry">
                        <mxRectangle width="72" height="30" as="alternateBounds"/>
                    </mxGeometry>
                </mxCell>
                <mxCell id="153" value="&lt;font color=&quot;#030303&quot;&gt;amount&lt;/font&gt;" style="shape=partialRectangle;html=1;whiteSpace=wrap;connectable=0;fillColor=none;top=0;left=0;bottom=0;right=0;overflow=hidden;strokeColor=#000000;strokeWidth=2;fontStyle=0" vertex="1" parent="151">
                    <mxGeometry x="72" width="93" height="30" as="geometry">
                        <mxRectangle width="93" height="30" as="alternateBounds"/>
                    </mxGeometry>
                </mxCell>
                <mxCell id="154" value="&lt;font color=&quot;#000000&quot;&gt;credit_card&lt;/font&gt;" style="shape=partialRectangle;html=1;whiteSpace=wrap;connectable=0;fillColor=none;top=0;left=0;bottom=0;right=0;overflow=hidden;strokeColor=#000000;strokeWidth=2;fontStyle=0" vertex="1" parent="151">
                    <mxGeometry x="165" width="93" height="30" as="geometry">
                        <mxRectangle width="93" height="30" as="alternateBounds"/>
                    </mxGeometry>
                </mxCell>
                <mxCell id="155" style="edgeStyle=orthogonalEdgeStyle;html=1;entryX=0.098;entryY=1.004;entryDx=0;entryDy=0;entryPerimeter=0;fontColor=#000000;strokeColor=#050505;" edge="1" parent="1" source="150" target="121">
                    <mxGeometry relative="1" as="geometry">
                        <Array as="points">
                            <mxPoint x="342" y="1000"/>
                            <mxPoint x="272" y="1000"/>
                            <mxPoint x="272" y="796"/>
                            <mxPoint x="342" y="796"/>
                        </Array>
                    </mxGeometry>
                </mxCell>
            </root>
        </mxGraphModel>
    </diagram>
</mxfile>